<svg width="46" height="46" viewBox="0 0 46 46" fill="none" xmlns="http://www.w3.org/2000/svg">
<path d="M1.43057 31C4.68031 39.7583 13.1108 46 23 46C32.8892 46 41.3197 39.7583 44.5694 31L23 29L1.43057 31Z" fill="#FFDA44"/>
<path d="M23 0C13.1108 0 4.68031 6.24162 1.43057 15L23 17L44.5694 15C41.3197 6.24162 32.8892 0 23 0Z" fill="black"/>
<path d="M1.43058 15C0.50609 17.4917 0 20.1866 0 23C0 25.8134 0.50609 28.5083 1.43058 31H44.5695C45.494 28.5083 46 25.8134 46 23C46 20.1866 45.494 17.4917 44.5694 15H1.43058Z" fill="#D80027"/>
</svg>
