<svg width="46" height="46" viewBox="0 0 46 46" fill="none" xmlns="http://www.w3.org/2000/svg">
<path d="M0 23C0 25.8134 0.50609 28.5083 1.43058 31L23 33L44.5694 31C45.4939 28.5083 46 25.8134 46 23C46 20.1866 45.4939 17.4917 44.5694 15L23 13L1.43058 15C0.50609 17.4917 0 20.1866 0 23H0Z" fill="#FFDA44"/>
<path d="M44.5694 15C41.3197 6.24171 32.8892 0 23 0C13.1108 0 4.68031 6.24171 1.43057 15H44.5694Z" fill="#D80027"/>
<path d="M1.43057 31C4.68031 39.7583 13.1108 46 23 46C32.8892 46 41.3197 39.7583 44.5694 31H1.43057Z" fill="#D80027"/>
</svg>
