<svg width="46" height="46" viewBox="0 0 46 46" fill="none" xmlns="http://www.w3.org/2000/svg">
<path d="M23 46C35.7025 46 46 35.7025 46 23C46 10.2975 35.7025 0 23 0C10.2975 0 0 10.2975 0 23C0 35.7025 10.2975 46 23 46Z" fill="#F0F0F0"/>
<path d="M4.75453 8.99713C2.94786 11.3477 1.58556 14.057 0.792328 17.0001H12.7575L4.75453 8.99713Z" fill="#0052B4"/>
<path d="M45.2077 17.0001C44.4144 14.057 43.0521 11.3478 41.2455 8.99722L33.2426 17.0001H45.2077Z" fill="#0052B4"/>
<path d="M0.792328 29.0001C1.58565 31.9432 2.94795 34.6525 4.75453 37.003L12.7573 29.0001H0.792328Z" fill="#0052B4"/>
<path d="M37.0029 4.75462C34.6523 2.94795 31.9431 1.58565 28.9999 0.792328V12.7574L37.0029 4.75462Z" fill="#0052B4"/>
<path d="M8.99713 41.2454C11.3477 43.052 14.057 44.4143 17.0001 45.2077V33.2426L8.99713 41.2454Z" fill="#0052B4"/>
<path d="M17 0.792328C14.0569 1.58565 11.3476 2.94795 8.99713 4.75453L17 12.7574V0.792328Z" fill="#0052B4"/>
<path d="M29 45.2077C31.9431 44.4143 34.6524 43.052 37.0029 41.2455L29 33.2426V45.2077Z" fill="#0052B4"/>
<path d="M33.2426 29.0001L41.2455 37.003C43.0521 34.6526 44.4144 31.9432 45.2077 29.0001H33.2426Z" fill="#0052B4"/>
<path d="M45.8053 20H26.0002H26.0001V0.194691C25.018 0.0668438 24.0168 0 23 0C21.9831 0 20.982 0.0668438 20 0.194691V19.9998V19.9999H0.194691C0.0668438 20.982 0 21.9832 0 23C0 24.0169 0.0668438 25.018 0.194691 26H19.9998H19.9999V45.8053C20.982 45.9332 21.9831 46 23 46C24.0168 46 25.018 45.9332 26 45.8053V26.0002V26.0001H45.8053C45.9332 25.018 46 24.0169 46 23C46 21.9832 45.9332 20.982 45.8053 20Z" fill="#D80027"/>
<path d="M29 29.0001L39.2634 39.2635C39.7355 38.7917 40.1858 38.2983 40.6154 37.7869L31.8285 29H29V29.0001Z" fill="#D80027"/>
<path d="M17 29.0001H16.9998L6.73648 39.2634C7.20834 39.7355 7.70167 40.1858 8.21306 40.6154L17 31.8283V29.0001Z" fill="#D80027"/>
<path d="M17 17.0001V17L6.73658 6.73648C6.26454 7.20834 5.81425 7.70167 5.38461 8.21306L14.1716 17.0001H17V17.0001Z" fill="#D80027"/>
<path d="M29 17.0001L39.2635 6.73657C38.7917 6.26453 38.2983 5.81423 37.7869 5.38469L29 14.1717V17.0001Z" fill="#D80027"/>
</svg>
